HIERARCHY
ROOT Hips
{
  OFFSET 0.0 0.0 0.0
  CHANNELS 6 XPOSITION YPOSITION ZPOSITION ZROTATION XROTATION YROTATION 
  JOINT LeftUpLeg
  {
    OFFSET 0.089458 -0.0866707 0.00101652
    CHANNELS 3 ZROTATION XROTATION YROTATION 
    JOINT LeftLeg
    {
      OFFSET 0.0 -0.444227 0.013727
      CHANNELS 3 ZROTATION XROTATION YROTATION 
      JOINT LeftFoot
      {
        OFFSET -0.00253549 -0.420924 -0.0146059
        CHANNELS 3 ZROTATION XROTATION YROTATION 
        End Site
        {
          OFFSET -0.0004 -0.0441509 0.084991
        }
      }
    }
  }
  JOINT Spine
  {
    OFFSET 0.0 0.118905 0.0
    CHANNELS 3 ZROTATION XROTATION YROTATION 
    JOINT Spine1
    {
      OFFSET 0.0 0.256574 0.00127663
      CHANNELS 3 ZROTATION XROTATION YROTATION 
      End Site
      {
        OFFSET -0.0029 0.2150836 0.02525291
      }
      JOINT RightArm
      {
        OFFSET -0.162727 -0.05365632 0.00102123
        CHANNELS 3 ZROTATION XROTATION YROTATION 
        JOINT RightForeArm
        {
          OFFSET -0.26364 0.00099144 -0.0142434
          CHANNELS 3 ZROTATION XROTATION YROTATION 
          End Site
          {
            OFFSET -0.220324 0.00085362 0.0102216
          }
        }
      }
      JOINT LeftArm
      {
        OFFSET 0.162727 -0.0536563199 0.00102123
        CHANNELS 3 ZROTATION XROTATION YROTATION 
        JOINT LeftForeArm
        {
          OFFSET 0.262597 0.00099144 -0.0142434
          CHANNELS 3 ZROTATION XROTATION YROTATION 
          End Site
          {
            OFFSET 0.220902 0.00085362 0.0102216
          }
        }
      }
    }
  }
  JOINT RightUpLeg
  {
    OFFSET -0.089458 -0.0866707 0.00101652
    CHANNELS 3 ZROTATION XROTATION YROTATION 
    JOINT RightLeg
    {
      OFFSET 0.0 -0.444227 0.013727
      CHANNELS 3 ZROTATION XROTATION YROTATION 
      JOINT RightFoot
      {
        OFFSET 0.00253549 -0.420924 -0.0146059
        CHANNELS 3 ZROTATION XROTATION YROTATION 
        End Site
        {
          OFFSET 0.0004 -0.0441509 0.084991
        }
      }
    }
  }
}
MOTION
Frames: 14
Frame Time: 0.033333
1.91207199291 0.985254747814 0.0416116859774 -5.04633329655 -0.436649618049 -90.7360305196 -1.72399001243 4.37904985474 2.46188000119 -0.222620998012 7.76782985531 22.8084997804 -1.38923411692 -34.3659123938 0.010938043529 0.821456019224 8.08853968024 -0.198973002136 -2.07806990049 -0.882691973506 0.287450005324 78.2428700371 -17.9049806167 5.11292934851 8.01411025508 37.5198990921 8.37193959683 -73.0931806104 -10.7439336682 -1.42094935328 -5.96493995218 36.5842997796 -12.5149001209 -0.2714919887 3.71850012567 -4.02336988815 -0.0736215018259 10.4734001205 -10.6756001869 2.29881649183 -36.2671775116 -0.110219976596 
1.9121624896 0.980897261113 0.0414057166758 -5.05063845017 -0.450156583937 -90.7369662555 -1.72434998475 4.37939904816 2.46176004599 -0.223590991596 7.76354988802 22.8108544881 -1.38922504557 -34.3659055636 0.0109444143145 0.810782994873 8.07232822624 -0.197812256843 -2.05709865842 -0.859892321809 0.284867553487 78.2517970943 -17.9338808546 5.13395608587 8.02076798197 37.5497743396 8.3513201095 -73.1014383091 -10.7385694084 -1.42914461979 -5.94666706172 36.601826045 -12.5331187968 -0.27353346821 3.71626537316 -4.02558543076 -0.0719256205498 10.4751981678 -10.672906531 2.30860650079 -36.2687552853 -0.11017643414 
1.91225099811 0.980797909724 0.0409209294314 -5.04678494281 -0.485800032842 -90.7337014251 -1.73383775784 4.36915120309 2.44741985038 -0.219503403522 7.7611823737 22.8264648854 -1.38881256618 -34.3660797334 0.0109568782425 0.743591382438 7.97105103501 -0.187718304467 -1.93353285237 -0.720641199775 0.273519567707 78.2827037003 -18.0035180483 5.21963056372 8.03289242152 37.6024897396 8.30937250271 -73.1473849917 -10.7281909359 -1.48875594954 -5.8943858056 36.6708929179 -12.5812758993 -0.285971856338 3.69824989545 -4.03889320058 -0.0656090162487 10.4953899145 -10.6600299169 2.32354327073 -36.2826273995 -0.110020740511 
1.91230715845 0.980772232542 0.0402756617709 -5.03502079574 -0.549933214632 -90.736153463 -1.7698079886 4.35029006258 2.40725150787 -0.20858197106 7.76114053879 22.8707842754 -1.38281139122 -34.3656528466 0.0109480603616 0.612714926101 7.79318010241 -0.160972550997 -1.71093357223 -0.477574030482 0.261764491981 78.3180840802 -18.0093954261 5.32991037118 8.02989994489 37.5660506804 8.31608999376 -73.2265332238 -10.6851837961 -1.59446721421 -5.85085487559 36.7280103749 -12.6246715062 -0.325665634102 3.65417169652 -4.07603790372 -0.0555620447684 10.5553837348 -10.6112700502 2.31908763951 -36.318537119 -0.109981040037 
1.91248007492 0.980737401931 0.0396566031411 -5.0340632886 -0.633895396078 -90.7640889367 -1.82956904891 4.34550209997 2.36166789257 -0.20600992459 7.74434339607 22.9370302802 -1.35859559585 -34.3594646952 0.0110624893755 0.482275815313 7.64851413447 -0.125674066666 -1.5139869885 -0.277925013042 0.262498897399 78.3420307234 -17.912391372 5.40054648002 8.02049989705 37.4588815972 8.36561740298 -73.2963104363 -10.5620918344 -1.67081805696 -5.8382651294 36.6618258418 -12.662187174 -0.395813784631 3.59953487892 -4.13587804482 -0.0431257410483 10.6386813069 -10.5132576894 2.29767072759 -36.3632509524 -0.110341239134 
1.91280930884 0.980721585932 0.0391320164789 -5.04884936749 -0.709448920964 -90.7879262969 -1.87896177534 4.35045825599 2.33705402523 -0.216357421059 7.72317151719 22.9747943961 -1.32299739695 -34.3485978643 0.0115454417798 0.40343723624 7.57006685053 -0.107409887361 -1.40548548483 -0.163175300345 0.260736335067 78.3734427634 -17.8438948199 5.46168990659 8.04238040806 37.4311032178 8.35179480765 -73.344210553 -10.3813206327 -1.69745675522 -5.81596925752 36.4636342427 -12.738797137 -0.460160729998 3.57136013515 -4.18871468069 -0.0303584666381 10.6816440505 -10.4315242307 2.27612724373 -36.3853739351 -0.111078759492 
1.91320722514 0.980737269766 0.0386497354694 -5.07259323948 -0.75493947494 -90.7454425203 -1.88964611219 4.34167292517 2.33395824199 -0.223239797143 7.7335773104 22.9284925437 -1.30191238954 -34.3441992224 0.0122844162211 0.379423038171 7.51000985094 -0.126373880911 -1.35248375048 -0.0693075236636 0.231383143542 78.4222376348 -17.874985841 5.53878737439 8.09306809566 37.4422910677 8.27004171215 -73.3831084803 -10.2173773096 -1.71777027142 -5.77425985358 36.2036021108 -12.8464434797 -0.475746901519 3.59818634345 -4.20226022647 -0.0246041756697 10.6371743964 -10.4605038695 2.26362564968 -36.3691419906 -0.111816600015 
1.91361884637 0.980766784817 0.03818355697 -5.1006512297 -0.775036452799 -90.6321091914 -1.86852097742 4.32009593069 2.33926487209 -0.219788097013 7.76986183659 22.8058991858 -1.29232600559 -34.3528701476 0.0129584888577 0.382738481363 7.44170625169 -0.170265663693 -1.30720471893 0.0314917277566 0.179517381708 78.4768245067 -17.9361348171 5.59270616836 8.126360999 37.3400431358 8.22662988356 -73.4185025206 -10.1172740571 -1.75856464346 -5.74624924779 35.9911798125 -12.9243819145 -0.447500494123 3.66312863585 -4.1835924657 -0.0268005367226 10.5382877714 -10.5926005819 2.27232944511 -36.3351481391 -0.112137111978 
1.9140788835 0.980785496275 0.0378028600553 -5.1293354629 -0.783869007974 -90.5205175607 -1.83829056015 4.30403943662 2.35152783642 -0.222459594773 7.79248427689 22.6780653653 -1.26565048835 -34.3724830358 0.013561351436 0.399911951494 7.38547757312 -0.206271299388 -1.27981672757 0.0996712163303 0.139888584123 78.5339590391 -17.9899242643 5.59814342583 8.11830564464 37.1995734653 8.25099572965 -73.4402703335 -10.0963916075 -1.80110124734 -5.74896851685 35.9458068658 -12.9296368913 -0.417341420317 3.7165846845 -4.16843584904 -0.0234315209016 10.4581141571 -10.7160289304 2.30025189877 -36.3112151562 -0.111888010177 
1.91459493834 0.98078915128 0.037590988826 -5.15003435118 -0.784723101785 -90.4706981609 -1.81073843081 4.29037521629 2.37287175069 -0.241604975202 7.7951437818 22.6059112469 -1.22323661443 -34.3959276601 0.0143987524718 0.442239487554 7.33922267829 -0.216270896436 -1.30383999699 0.14017307751 0.136248907048 78.6043236479 -18.1159532073 5.60541757729 8.09232787391 37.2601435829 8.25142688534 -73.4479816171 -10.182693609 -1.84386975749 -5.77368014127 36.1309323131 -12.8570396644 -0.40788867863 3.72876846132 -4.17226630451 -0.00528841862282 10.4246675745 -10.756724905 2.31961505818 -36.2984461176 -0.111311539543 
1.91510112021 0.980787206817 0.0375517806584 -5.1605464392 -0.778322467481 -90.4662721984 -1.790884565 4.26474535832 2.39176533459 -0.262751214192 7.80614550901 22.5875277928 -1.20190710759 -34.4152161143 0.0154336762084 0.510804341538 7.27143902719 -0.204924137955 -1.36167526411 0.226012640503 0.16103526334 78.6787317288 -18.3462415729 5.66178670163 8.06560902765 37.521951564 8.19455360767 -73.4664094674 -10.4061338562 -1.93718657669 -5.82864395418 36.4953229053 -12.7046743657 -0.408084326197 3.71257621723 -4.17832297475 0.0134288280903 10.4180328995 -10.7516731263 2.31664392589 -36.2848642864 -0.110863335059 
1.91556274192 0.980779855773 0.0376224627668 -5.17624477523 -0.77349805941 -90.4583081978 -1.78406366062 4.23940791782 2.39728306022 -0.271479849106 7.83207546842 22.5798062639 -1.21162091725 -34.4269606246 0.0161996779218 0.578287677754 7.19246240359 -0.182446238861 -1.39598650597 0.378325778953 0.193798933736 78.7235309395 -18.5580372014 5.72782694694 8.0116539483 37.716311427 8.18735629583 -73.5165157352 -10.7268650255 -2.10791249108 -5.92975252513 36.8942298585 -12.4859990292 -0.407327989468 3.69697265007 -4.17296469135 0.0132307234227 10.4267260228 -10.7658483302 2.31488493874 -36.2748341536 -0.11065383368 
1.91602011704 0.98075935735 0.0377481230527 -5.2124456316 -0.772839746568 -90.4309396298 -1.78623864898 4.23625108976 2.39770930672 -0.273889758624 7.85681868246 22.5538891111 -1.21721068003 -34.4350543988 0.0164845431674 0.622422812706 7.1518787002 -0.158942877576 -1.39330106768 0.521998274535 0.220684265857 78.7247330528 -18.6267096308 5.73816699957 7.90564002087 37.7118410682 8.31302323882 -73.5745177016 -10.9947672428 -2.28874516445 -6.04336418423 37.1508878769 -12.2856704346 -0.405305933309 3.69628920427 -4.16466899971 -0.00138960675993 10.4536805106 -10.8053396302 2.32799634062 -36.2790620407 -0.110408880685 
1.91649988491 0.980731380634 0.0379268846755 -5.25915686845 -0.766883021199 -90.4026489862 -1.78584900804 4.24197905716 2.40493116455 -0.279583921917 7.88408735895 22.5211605522 -1.19915720939 -34.4427144559 0.0166369417633 0.653134918392 7.1537514527 -0.147567157493 -1.40387430724 0.596012712342 0.236268969954 78.7101984103 -18.5947853267 5.70411679901 7.78278540827 37.6842949153 8.48604217578 -73.5866481176 -11.03632126 -2.37421302908 -6.09764924709 37.1268114601 -12.2268053031 -0.402369085368 3.70406452086 -4.16284491232 -0.0104292953212 10.4839877675 -10.8391388213 2.33102424886 -36.2882281546 -0.11008319272 
